<?xml version="1.0" standalone="no"?><!DOCTYPE svg PUBLIC "-//W3C//DTD SVG 1.1//EN" "http://www.w3.org/Graphics/SVG/1.1/DTD/svg11.dtd"><svg class="icon" width="200px" height="200.00px" viewBox="0 0 1024 1024" version="1.1" xmlns="http://www.w3.org/2000/svg"><path fill="#515151" d="M778.299 577.498c0-16.473-5.487-30.593-17.256-43.142L424.54 198.637c-11.764-11.768-28.24-21.963-47.85-30.593-20.394-8.625-38.436-12.549-54.907-12.549H125.688c-16.472 0-30.589 6.276-42.359 18.041-11.763 11.768-18.04 25.886-18.04 42.358v195.311c0 16.471 3.923 35.297 12.55 54.907 8.63 20.394 18.04 36.086 30.592 47.85l336.503 336.503c11.764 11.768 25.888 17.255 42.357 17.255 16.472 0 30.59-5.487 43.142-17.255l230.609-230.609c10.985-11.769 17.257-25.886 17.257-42.358z m-520.05-228.26c-11.765 11.768-25.883 17.256-42.359 17.256-16.472 0-30.59-5.489-42.353-17.256-11.768-11.764-17.261-25.881-17.261-42.359 0-16.47 5.493-30.588 17.26-42.353 11.764-11.768 25.882-17.26 42.354-17.26 16.476 0 30.593 5.49 42.358 17.26 11.77 11.765 17.256 25.881 17.256 42.353 0.785 16.478-5.487 30.595-17.256 42.359z m683.204 185.118L604.95 198.637c-11.763-11.768-28.24-21.963-47.85-30.593-20.394-8.625-38.435-12.549-54.905-12.549H396.3c16.477 0 35.301 3.924 54.911 12.55 20.392 8.63 36.08 18.04 47.845 30.592l336.503 335.72c11.768 12.548 17.26 26.669 17.26 43.14 0 16.473-5.492 30.59-17.26 42.36L615.146 841.051c9.414 9.413 18.045 16.475 25.1 21.18 7.061 4.702 16.473 6.273 27.456 6.273 16.472 0 30.59-5.487 43.142-17.255l230.608-231.394c11.768-11.769 17.255-25.886 17.255-42.358 0.001-16.473-5.486-30.594-17.254-43.142z m0 0" /></svg>